# xmcd
#
# Track frame offsets: 
#        150
#        12919
#        36415
#        48703
#        75950
#        96886
#        109382
#        123702
#        136262
#        152070
#        183974
#        196846
#
# Disc length: 2948 seconds
#
# Revision: 1
# Processed by: cddbd v1.5.2PL0 Copyright (c) Steve Scherf et al.
# Submitted via: ExactAudioCopy v0.99pb5
#
DISCID=9d0b820c
DTITLE=Van Vuong - Tieng thoi gian
DYEAR=2008
DGENRE=Instrumental
TTITLE0=Lang toi (Van Cao)
TTITLE1=Gui gio cho may ngan bay (Doan Chuan)
TTITLE2=Mo hoa (Hoang Giac)
TTITLE3=La do muon chieu (Doan Chuan)
TTITLE4=Que huong (Hoang Giac)
TTITLE5=Mua xuan dau tien (van Cao)
TTITLE6=Du am (Nguyen Van Ty)
TTITLE7=Xuan va tuoi tre (la Hoi)
TTITLE8=Bong chieu xua (Duong Thieu Tuoc)
TTITLE9=Ta ao xanh (Doan Chuan)
TTITLE10=Nu cuoi son cuoc (To Hai)
TTITLE11=Biet ly (Doan Man)
EXTD=
EXTT0=
EXTT1=
EXTT2=
EXTT3=
EXTT4=
EXTT5=
EXTT6=
EXTT7=
EXTT8=
EXTT9=
EXTT10=
EXTT11=
PLAYORDER=
